<svg width="32" height="32" viewBox="0 0 32 32" fill="none" xmlns="http://www.w3.org/2000/svg">
<path d="M22 8.00006C19.9838 7.81943 18 9.00006 16 9.00006C14 9.00006 12.0156 7.81256 10 8.00006C6 8.37506 4 12.0001 4 18.0001C4 23.0001 8 30.0001 10.95 30.0001C13.9 30.0001 14.1962 28.5001 16 28.5001C17.8038 28.5001 18.0994 30.0001 21.05 30.0001C24.0006 30.0001 28 23.0001 28 18.0001C28 12.0001 26.1875 8.37506 22 8.00006Z" stroke="#E67E22" stroke-width="2" stroke-miterlimit="10"/>
<path d="M20.245 5.19609C18.9325 6.50859 17.3913 6.88359 16.5688 6.99547C16.4936 7.00631 16.4169 6.99987 16.3445 6.97663C16.2722 6.9534 16.2061 6.91399 16.1513 6.86139C16.0965 6.8088 16.0543 6.7444 16.0281 6.67309C16.0019 6.60177 15.9923 6.52543 16 6.44984C16.1483 5.04394 16.7804 3.73321 17.7881 2.74172C19.1631 1.36672 20.6631 1.06047 21.4581 1.00109C21.5323 0.99432 21.6071 1.00422 21.677 1.03008C21.7469 1.05594 21.8102 1.09709 21.8621 1.15053C21.914 1.20397 21.9534 1.26835 21.9772 1.33895C22.0011 1.40955 22.0089 1.4846 22 1.55859C21.8431 2.93464 21.2244 4.21688 20.245 5.19609Z" fill="#E67E22"/>
<path d="M13.5 22C14.3284 22 15 20.6569 15 19C15 17.3431 14.3284 16 13.5 16C12.6716 16 12 17.3431 12 19C12 20.6569 12.6716 22 13.5 22Z" fill="#E67E22"/>
<path d="M18.5 22C19.3284 22 20 20.6569 20 19C20 17.3431 19.3284 16 18.5 16C17.6716 16 17 17.3431 17 19C17 20.6569 17.6716 22 18.5 22Z" fill="#E67E22"/>
</svg>
